<?xml version="1.0" encoding="UTF-8"?> <svg xmlns="http://www.w3.org/2000/svg" xmlns:xlink="http://www.w3.org/1999/xlink" id="RECURSOS" viewBox="0 0 8.36 10.72"><defs><style>.cls-1{fill:url(#Degradado_sin_nombre_4);}.cls-2{fill:url(#Degradado_sin_nombre_6);}.cls-3{fill:url(#Degradado_sin_nombre_4-2);}.cls-4{fill:url(#Degradado_sin_nombre_4-3);}.cls-5{fill:url(#Degradado_sin_nombre_6-2);}.cls-6{fill:url(#Degradado_sin_nombre_6-3);}.cls-7{fill:#fff;}</style><linearGradient id="Degradado_sin_nombre_4" x1="2785.7" y1="3380.76" x2="2785.7" y2="3380.71" gradientTransform="matrix(8, 0, 0, -8, -22280.99, 27041.08)" gradientUnits="userSpaceOnUse"><stop offset="0" stop-color="#f3f7ff"></stop><stop offset="0.99" stop-color="#b5d1ff"></stop></linearGradient><linearGradient id="Degradado_sin_nombre_6" x1="2785.21" y1="3379.49" x2="2785.21" y2="3377.68" gradientTransform="matrix(8, 0, 0, -8, -22280.99, 27041.08)" gradientUnits="userSpaceOnUse"><stop offset="0" stop-color="#ff5252"></stop><stop offset="1" stop-color="#d50000"></stop></linearGradient><linearGradient id="Degradado_sin_nombre_4-2" x1="2785.68" y1="3380.22" x2="2785.68" y2="3376.98" xlink:href="#Degradado_sin_nombre_4"></linearGradient><linearGradient id="Degradado_sin_nombre_4-3" x1="2786.03" y1="3380.59" x2="2786.03" y2="3380.19" xlink:href="#Degradado_sin_nombre_4"></linearGradient><linearGradient id="Degradado_sin_nombre_6-2" x1="2785.55" y1="3379.45" x2="2785.55" y2="3378.38" xlink:href="#Degradado_sin_nombre_6"></linearGradient><linearGradient id="Degradado_sin_nombre_6-3" x1="2785.18" y1="3379.78" x2="2785.18" y2="3379.22" xlink:href="#Degradado_sin_nombre_6"></linearGradient></defs><g id="CURSOS"><g id="PDF"><path class="cls-1" d="M8.1,10.59h-7a.17.17,0,0,1-.17-.16V.35A.17.17,0,0,1,1.11.19H6.42a.15.15,0,0,1,.11,0L8.21,1.91a.21.21,0,0,1,0,.12v8.4A.16.16,0,0,1,8.1,10.59Z"></path><path class="cls-2" d="M.13,5.54l.65-.28L1.23,6H.13Z"></path><path class="cls-3" d="M7.94,10.59h-7a.16.16,0,0,1-.16-.16V.35A.16.16,0,0,1,.94.19H6.32L8.1,2v8.47A.16.16,0,0,1,7.94,10.59Z"></path><path class="cls-4" d="M6.32.19V1.8A.17.17,0,0,0,6.49,2H8.1L7.3,1Z"></path><path class="cls-5" d="M6.48,8.72H.42a.28.28,0,0,1-.29-.28h0V5.83H6.48a.28.28,0,0,1,.28.29V8.44a.27.27,0,0,1-.28.28Z"></path><path class="cls-6" d="M.78,5.26H.42a.29.29,0,0,0-.29.28h0a.29.29,0,0,0,.29.29H.78Z"></path><path class="cls-7" d="M1.43,7.84V6.72a.14.14,0,0,1,.14-.14h0a4.71,4.71,0,0,1,.65,0A.38.38,0,0,1,2.5,7a.41.41,0,0,1-.31.42,3.1,3.1,0,0,1-.43,0,0,0,0,0,0-.05,0v.35A.14.14,0,0,1,1.57,8h0a.14.14,0,0,1-.14-.14Zm.28-1v.31a0,0,0,0,0,.05,0,1.22,1.22,0,0,0,.33,0,.19.19,0,0,0,0-.36,1.41,1.41,0,0,0-.29,0,0,0,0,0,0-.05,0Z"></path><path class="cls-7" d="M2.73,6.72a.14.14,0,0,1,.14-.14h0a3.39,3.39,0,0,1,.64,0A.51.51,0,0,1,3.86,7a.93.93,0,0,1,0,.33.78.78,0,0,1,0,.3A.53.53,0,0,1,3.51,8a3.39,3.39,0,0,1-.64,0,.15.15,0,0,1-.14-.14ZM3,6.86V7.7a0,0,0,0,0,.05,0,2,2,0,0,0,.34,0,.23.23,0,0,0,.18-.2,1.07,1.07,0,0,0,0-.25.69.69,0,0,0,0-.25.26.26,0,0,0-.21-.2,1.61,1.61,0,0,0-.31,0,0,0,0,0,0-.05,0Z"></path><path class="cls-7" d="M4.14,7.84V6.72a.15.15,0,0,1,.15-.14H5a.12.12,0,0,1,.12.12h0A.12.12,0,0,1,5,6.82H4.47a0,0,0,0,0,0,0h0V7.1a0,0,0,0,0,0,.05h.42A.11.11,0,0,1,5,7.26a.12.12,0,0,1-.12.12H4.47a0,0,0,0,0,0,0v.4a.15.15,0,1,1-.29,0Z"></path></g></g></svg> 