<?xml version="1.0" encoding="UTF-8"?> <svg xmlns="http://www.w3.org/2000/svg" xmlns:xlink="http://www.w3.org/1999/xlink" viewBox="0 0 128.37 46.13"><defs><style>.cls-1,.cls-6{fill:none;}.cls-2{fill:#fff;}.cls-3{fill:#003d7c;}.cls-4{clip-path:url(#clip-path);}.cls-5{fill:url(#Degradado_sin_nombre_2);}.cls-6{stroke:#fff;stroke-miterlimit:10;stroke-width:0.21px;}</style><clipPath id="clip-path"><path class="cls-1" d="M3,33.25a22.47,22.47,0,0,0,40,0Z"></path></clipPath><linearGradient id="Degradado_sin_nombre_2" x1="7370.54" y1="7169.93" x2="7371.09" y2="7169.93" gradientTransform="matrix(72.61, 0, 0, -72.61, -535170.32, 520646.89)" gradientUnits="userSpaceOnUse"><stop offset="0" stop-color="#ffdf00"></stop><stop offset="0.14" stop-color="#fcde01"></stop><stop offset="0.25" stop-color="#f2da03"></stop><stop offset="0.36" stop-color="#e0d407"></stop><stop offset="0.46" stop-color="#c8cb0d"></stop><stop offset="0.55" stop-color="#a9bf15"></stop><stop offset="0.64" stop-color="#83b11e"></stop><stop offset="0.73" stop-color="#56a128"></stop><stop offset="0.79" stop-color="#369530"></stop><stop offset="1" stop-color="#369530"></stop></linearGradient></defs><g id="LOGIN"><g id="FOOTER"><path class="cls-2" d="M64.83,14.36h2.72c1.25,0,2.43.3,2.43,1.68a1.5,1.5,0,0,1-1.3,1.57h0a1.56,1.56,0,0,1,1.48,1.67c0,1.37-1.2,1.88-2.47,1.88H64.83Zm2.57,2.8c.79,0,1.14-.29,1.14-.81s-.32-.83-1.12-.83H66.3v1.64ZM67.5,20c.83,0,1.2-.34,1.2-.92s-.43-.89-1.26-.89H66.3V20Z"></path><path class="cls-2" d="M71.92,14.36h1.49v6.81H71.92Z"></path><path class="cls-2" d="M75,17.76a3.22,3.22,0,1,1,6.41,0,3.22,3.22,0,1,1-6.41,0Zm4.92,0c0-1.42-.66-2.29-1.71-2.29s-1.71.87-1.71,2.29.65,2.33,1.71,2.33S80,19.19,80,17.76Z"></path><path class="cls-2" d="M83,14.36h2l1.51,5h0l1.42-5h2v6.81H88.5V16.52h0A11.63,11.63,0,0,1,88.1,18l-1,3.13H85.76l-1-3.13a12.11,12.11,0,0,1-.4-1.59h0v4.72H83Z"></path><path class="cls-2" d="M91.81,14.36h4.63v1.25H93.31v1.46h2.27v1.19H93.31V20h3.3v1.22h-4.8Zm2.32-2h1.49L94.25,14h-1Z"></path><path class="cls-2" d="M98.09,14.36h2.56c1.68,0,2.68.6,2.68,2.1a1.83,1.83,0,0,1-1.42,1.95l1.52,2.76h-1.58l-1.42-2.57h-.87v2.57H98.09Zm2.5,3.08c.86,0,1.28-.25,1.28-.94s-.42-.92-1.28-.92h-1v1.86Z"></path><path class="cls-2" d="M105.12,14.36h1.49v6.81h-1.49Z"></path><path class="cls-2" d="M108.54,14.36h4.64v1.25H110v1.46h2.27v1.19H110V20h3.3v1.22h-4.8Z"></path><path class="cls-2" d="M114.72,18.56v-4.2h1.5v4.17c0,1,.37,1.53,1.27,1.53s1.25-.54,1.25-1.53V14.36h1.47v4.19a2.75,2.75,0,0,1-5.49,0Z"></path><path class="cls-2" d="M123.74,17.57l-2-3.21h1.71l1.21,2,1.15-2h1.55l-1.94,3.22,2.21,3.59H126l-1.44-2.39-1.4,2.39h-1.57Z"></path><path class="cls-2" d="M64.51,27.79c0-2.36,1.37-3.52,3.09-3.52a2.55,2.55,0,0,1,2.76,2.14l-1.42.42c-.22-.78-.55-1.32-1.35-1.32-1,0-1.59.88-1.59,2.28s.58,2.34,1.61,2.34c.8,0,1.19-.5,1.43-1.43l1.41.31a2.7,2.7,0,0,1-2.85,2.33C65.82,31.34,64.51,30.2,64.51,27.79Z"></path><path class="cls-2" d="M71.68,27.8a3.22,3.22,0,1,1,6.41,0,3.22,3.22,0,1,1-6.41,0Zm4.92,0c0-1.42-.66-2.29-1.71-2.29s-1.71.87-1.71,2.29.65,2.33,1.71,2.33S76.6,29.23,76.6,27.8Z"></path><path class="cls-2" d="M79.64,24.4h1.5V30h3v1.22h-4.5Z"></path><path class="cls-2" d="M85.17,27.8a3.22,3.22,0,1,1,6.41,0,3.22,3.22,0,1,1-6.41,0Zm4.92,0c0-1.42-.66-2.29-1.71-2.29s-1.71.87-1.71,2.29.65,2.33,1.71,2.33S90.09,29.23,90.09,27.8Z"></path><path class="cls-2" d="M93.13,24.4h2l1.52,5h0l1.41-5h2v6.81H98.64V26.56h0a13.55,13.55,0,0,1-.37,1.52l-1,3.13H95.9l-1-3.13a12.11,12.11,0,0,1-.4-1.59h0v4.72H93.13Z"></path><path class="cls-2" d="M102,24.4h2.72c1.25,0,2.43.3,2.43,1.68a1.5,1.5,0,0,1-1.3,1.57v0a1.56,1.56,0,0,1,1.49,1.66c0,1.37-1.21,1.88-2.48,1.88H102Zm2.58,2.81c.78,0,1.14-.3,1.14-.82s-.33-.83-1.13-.83h-1.12v1.65Zm.1,2.86c.83,0,1.19-.33,1.19-.91s-.43-.9-1.26-.9h-1.14v1.81Z"></path><path class="cls-2" d="M109.05,24.4h1.49v6.81h-1.49Z"></path><path class="cls-2" d="M114.34,24.37h1.42l2.42,6.84h-1.52l-.51-1.52h-2.32l-.52,1.52h-1.38Zm1.46,4.23L115,26.29h0l-.8,2.31Z"></path></g><path class="cls-3" d="M23,.52A22.48,22.48,0,0,0,1,27.71H45A22.48,22.48,0,0,0,23,.52"></path><g class="cls-4"><rect class="cls-5" x="3.02" y="33.25" width="39.96" height="12.19"></rect></g><path class="cls-2" d="M3.33,23.28V19.22H5c.75,0,1.45.18,1.45,1a.89.89,0,0,1-.77.93h0a.94.94,0,0,1,.88,1c0,.82-.72,1.12-1.48,1.12Zm.88-2.38h.65c.47,0,.68-.18.68-.49s-.19-.5-.67-.5H4.21Zm0,1.7h.71c.5,0,.72-.2.72-.54s-.26-.53-.75-.53H4.21Z"></path><path class="cls-2" d="M7.83,23.28V19.22h.89v4.06Z"></path><path class="cls-2" d="M10,21.25a1.92,1.92,0,1,1,3.82,0,1.92,1.92,0,1,1-3.82,0Zm2.93,0c0-.85-.39-1.36-1-1.36s-1,.51-1,1.36.39,1.39,1,1.39S12.88,22.1,12.88,21.25Z"></path><path class="cls-2" d="M15,23.28V19.22h1.18l.91,3h0l.84-3h1.21v4.06h-.86V20.51h0a9.28,9.28,0,0,1-.23.91l-.61,1.86h-.79L16,21.42a8.61,8.61,0,0,1-.24-1h0v2.81Z"></path><path class="cls-2" d="M20.48,23.28V19.22h2.77V20H21.38v.87h1.35v.71H21.38v1h2v.72ZM21.87,18h.89l-.82.95h-.58Z"></path><path class="cls-2" d="M24.5,23.28V19.22H26c1,0,1.59.36,1.59,1.26a1.09,1.09,0,0,1-.84,1.16l.9,1.64h-.94l-.85-1.53h-.51v1.53Zm.88-2.22H26c.51,0,.76-.15.76-.56S26.5,20,26,20h-.61Z"></path><path class="cls-2" d="M29,23.28V19.22h.89v4.06Z"></path><path class="cls-2" d="M31.27,23.28V19.22H34V20H32.16v.87h1.36v.71H32.16v1h2v.72Z"></path><path class="cls-2" d="M35.16,21.73V19.22h.89v2.49c0,.58.23.91.76.91s.75-.32.75-.91V19.22h.87v2.5a1.46,1.46,0,0,1-1.63,1.63A1.46,1.46,0,0,1,35.16,21.73Z"></path><path class="cls-2" d="M39.44,23.28l1.31-2.14-1.19-1.92h1l.72,1.22L42,19.22h.92l-1.16,1.92,1.32,2.14h-1l-.86-1.42-.84,1.42Z"></path><line class="cls-6" x1="54.87" y1="0.49" x2="54.87" y2="45.26"></line></g></svg> 