<?xml version="1.0" encoding="UTF-8"?> <svg xmlns="http://www.w3.org/2000/svg" xmlns:xlink="http://www.w3.org/1999/xlink" viewBox="0 0 421.03 150.76"><defs><style>.cls-1,.cls-7{fill:none;}.cls-2{fill:#666;}.cls-3{fill:#003d7c;}.cls-4{clip-path:url(#clip-path);}.cls-5{fill:url(#Degradado_sin_nombre_2);}.cls-6{fill:#fff;}.cls-7{stroke:#9b9ea1;stroke-miterlimit:10;stroke-width:0.69px;}</style><clipPath id="clip-path"><path class="cls-1" d="M9,109.31a74.15,74.15,0,0,0,131.88,0Z"></path></clipPath><linearGradient id="Degradado_sin_nombre_2" x1="6344.26" y1="8577.85" x2="6346.07" y2="8577.85" gradientTransform="matrix(72.61, 0, 0, -72.61, -460646.33, 622965.36)" gradientUnits="userSpaceOnUse"><stop offset="0" stop-color="#ffdf00"></stop><stop offset="0.14" stop-color="#fcde01"></stop><stop offset="0.25" stop-color="#f2da03"></stop><stop offset="0.36" stop-color="#e0d407"></stop><stop offset="0.46" stop-color="#c8cb0d"></stop><stop offset="0.55" stop-color="#a9bf15"></stop><stop offset="0.64" stop-color="#83b11e"></stop><stop offset="0.73" stop-color="#56a128"></stop><stop offset="0.79" stop-color="#369530"></stop><stop offset="1" stop-color="#369530"></stop></linearGradient></defs><g id="LOGIN"><g id="TITLE"><g id="BIOMÉRIEUX_logo" data-name="BIOMÉRIEUX logo"><g id="FOOTER"><path class="cls-2" d="M213,47h9c4.13,0,8,1,8,5.56a4.93,4.93,0,0,1-4.28,5.17v.06c2.73.48,4.89,1.91,4.89,5.5,0,4.52-4,6.2-8.17,6.2H213Zm8.51,9.27c2.58,0,3.76-1,3.76-2.7s-1.06-2.74-3.7-2.74h-3.71v5.44Zm.33,9.45c2.73,0,4-1.1,4-3s-1.43-3-4.16-3h-3.77v6Z"></path><path class="cls-2" d="M236.37,47h4.92V69.45h-4.92Z"></path><path class="cls-2" d="M246.61,58.2c0-7.89,5.16-11.66,10.6-11.66s10.57,3.77,10.57,11.66-5.16,11.67-10.57,11.67S246.61,66.1,246.61,58.2Zm16.25,0c0-4.7-2.19-7.56-5.65-7.56s-5.65,2.86-5.65,7.56,2.15,7.69,5.65,7.69S262.86,62.91,262.86,58.2Z"></path><path class="cls-2" d="M272.88,47h6.53l5,16.53h.06L289.16,47h6.69V69.45h-4.77V54.1H291a40.45,40.45,0,0,1-1.25,5L286.4,69.45H282l-3.35-10.33a40.63,40.63,0,0,1-1.3-5.26h-.06V69.45h-4.44Z"></path><path class="cls-2" d="M302,47h15.31V51.1H306.93v4.83h7.51v3.92h-7.51v5.58h10.91v4H302Zm7.69-6.59h4.92l-4.53,5.26h-3.22Z"></path><path class="cls-2" d="M322.73,47h8.44c5.53,0,8.84,2,8.84,7,0,3.56-1.67,5.5-4.67,6.41l5,9.12h-5.23L330.44,61h-2.85v8.48h-4.86ZM331,57.14c2.86,0,4.22-.82,4.22-3.1s-1.36-3-4.22-3h-3.37v6.14Z"></path><path class="cls-2" d="M345.91,47h4.92V69.45h-4.92Z"></path><path class="cls-2" d="M357.2,47h15.32V51.1H362.16v4.83h7.5v3.92h-7.5v5.58h10.9v4H357.2Z"></path><path class="cls-2" d="M377.59,60.85V47h5V60.73c0,3.25,1.24,5.07,4.19,5.07s4.13-1.79,4.13-5.07V47h4.86V60.82c0,5.53-2.79,9-9.05,9S377.59,66.35,377.59,60.85Z"></path><path class="cls-2" d="M407.36,57.57,400.79,47h5.66l4,6.75L414.25,47h5.11L413,57.6l7.29,11.85h-5.5L410,61.58l-4.62,7.87h-5.19Z"></path><path class="cls-2" d="M211.89,91.31c0-7.81,4.52-11.63,10.2-11.63s8.15,3,9.12,7.08l-4.68,1.36c-.73-2.58-1.82-4.34-4.47-4.34-3.4,0-5.22,2.88-5.22,7.53S218.72,99,222.12,99c2.65,0,3.95-1.67,4.74-4.74l4.65,1c-1.09,4.53-3.77,7.69-9.42,7.69C216.23,103,211.89,99.24,211.89,91.31Z"></path><path class="cls-2" d="M235.55,91.34c0-7.9,5.16-11.66,10.6-11.66s10.57,3.76,10.57,11.66S251.56,103,246.15,103,235.55,99.24,235.55,91.34Zm16.25,0c0-4.71-2.19-7.56-5.65-7.56s-5.65,2.85-5.65,7.56S242.66,99,246.15,99,251.8,96.05,251.8,91.34Z"></path><path class="cls-2" d="M261.82,80.1h5V98.57h9.9v4H261.82Z"></path><path class="cls-2" d="M280.08,91.34c0-7.9,5.16-11.66,10.6-11.66s10.58,3.76,10.58,11.66S296.09,103,290.68,103,280.08,99.24,280.08,91.34Zm16.25,0c0-4.71-2.18-7.56-5.65-7.56S285,86.63,285,91.34,287.19,99,290.68,99,296.33,96.05,296.33,91.34Z"></path><path class="cls-2" d="M306.36,80.1h6.53l5,16.53H318l4.68-16.53h6.68v22.48h-4.77V87.24h-.06a40.33,40.33,0,0,1-1.24,5l-3.37,10.33H315.5l-3.34-10.33A39.79,39.79,0,0,1,310.85,87h-.06v15.58h-4.43Z"></path><path class="cls-2" d="M335.46,80.1h9c4.13,0,8,1,8,5.56a4.94,4.94,0,0,1-4.28,5.17v.06c2.73.48,4.89,1.91,4.89,5.5,0,4.52-4,6.19-8.18,6.19h-9.44Zm8.5,9.27c2.58,0,3.77-1,3.77-2.71s-1.06-2.73-3.71-2.73h-3.7v5.44Zm.34,9.45c2.73,0,3.95-1.1,3.95-3s-1.43-3-4.17-3h-3.76v6Z"></path><path class="cls-2" d="M358.88,80.1h4.92v22.48h-4.92Z"></path><path class="cls-2" d="M376.34,80h4.71l8,22.57h-5l-1.67-5h-7.66l-1.73,5h-4.56Zm4.83,14-2.58-7.66h-.06L375.89,94Z"></path></g><path class="cls-3" d="M74.91,1.31A74.17,74.17,0,0,0,2.44,91H147.38A74.13,74.13,0,0,0,74.91,1.31"></path><g class="cls-4"><rect class="cls-5" x="8.97" y="109.31" width="131.88" height="40.24"></rect></g><path class="cls-6" d="M10,76.42V63h5.36c2.46,0,4.78.6,4.78,3.31a2.94,2.94,0,0,1-2.55,3.08v0a3.06,3.06,0,0,1,2.91,3.27c0,2.7-2.37,3.69-4.87,3.69Zm2.9-7.87h2.17c1.54,0,2.24-.58,2.24-1.61s-.63-1.63-2.2-1.63H12.89Zm0,5.63h2.37c1.63,0,2.35-.65,2.35-1.79s-.85-1.76-2.48-1.76H12.89Z"></path><path class="cls-6" d="M24.84,76.42V63h2.93V76.42Z"></path><path class="cls-6" d="M31.84,69.73c0-4.71,3.08-7,6.31-7s6.3,2.24,6.3,7-3.07,7-6.3,7S31.84,74.43,31.84,69.73Zm9.68,0c0-2.81-1.3-4.51-3.37-4.51s-3.36,1.7-3.36,4.51,1.28,4.58,3.36,4.58S41.52,72.53,41.52,69.73Z"></path><path class="cls-6" d="M48.39,76.42V63h3.89l3,9.85h0L58.09,63h4V76.42H59.23V67.28h0a24.21,24.21,0,0,1-.74,3l-2,6.15H53.83l-2-6.15a23.41,23.41,0,0,1-.77-3.13h0v9.28Z"></path><path class="cls-6" d="M66.61,76.42V63h9.13v2.46H69.57v2.88H74V70.7H69.57V74h6.49v2.39Zm4.58-17.3h2.94l-2.7,3.13H69.51Z"></path><path class="cls-6" d="M79.87,76.42V63h5c3.29,0,5.27,1.18,5.27,4.14A3.58,3.58,0,0,1,87.38,71l3,5.43H87.25l-2.78-5h-1.7v5Zm2.9-7.33h2c1.71,0,2.52-.49,2.52-1.84s-.81-1.81-2.52-1.81h-2Z"></path><path class="cls-6" d="M94.57,76.42V63H97.5V76.42Z"></path><path class="cls-6" d="M102.2,76.42V63h9.13v2.46h-6.18v2.88h4.47V70.7h-4.47V74h6.5v2.39Z"></path><path class="cls-6" d="M115,71.3V63H118v8.2c0,1.94.74,3,2.5,3s2.46-1.07,2.46-3V63h2.9v8.25c0,3.3-1.67,5.36-5.4,5.36S115,74.58,115,71.3Z"></path><path class="cls-6" d="M129.18,76.42l4.29-7.07L129.56,63h3.37l2.39,4,2.26-4h3l-3.82,6.34,4.35,7h-3.28L135,71.74l-2.75,4.68Z"></path><line class="cls-7" x1="180.1" y1="1.21" x2="180.1" y2="148.95"></line></g></g></g></svg> 