<?xml version="1.0" encoding="UTF-8"?> <svg xmlns="http://www.w3.org/2000/svg" viewBox="0 0 28.62 15.96"><defs><style>.cls-1{fill:#9b9ea1;}</style></defs><g id="CURSO_FAQS" data-name="CURSO / FAQS"><path class="cls-1" d="M6.14,8.05v4.66c0,1.92,4.11,2.92,8.17,2.92s8.17-1,8.17-2.92V8.05C22.48,4.22,6.14,4.22,6.14,8.05Zm8.17,6.41c-4.34,0-7-1.13-7-1.75S10,11,14.31,11s7,1.14,7,1.75S18.65,14.46,14.31,14.46Z"></path><path class="cls-1" d="M28.31,6.3a1.22,1.22,0,0,0-.22-.67,1.11,1.11,0,0,0-.43-.37l-.14-.06L15.1.6l-.1,0a2.29,2.29,0,0,0-1.37,0l-.1,0L1.11,5.2,1,5.26a1.19,1.19,0,0,0-.41.36l-.07.1a1.13,1.13,0,0,0-.16.58A1.21,1.21,0,0,0,.53,7,1.13,1.13,0,0,0,1,7.34l.14,0L4.2,8.54a.59.59,0,0,0,.53-.07A.55.55,0,0,0,5,8c.07-3.84,7.78-4,9.33-4s9.27.2,9.33,4a.57.57,0,0,0,.25.47.58.58,0,0,0,.33.1.76.76,0,0,0,.21,0l.38-.15v4.18l-1.1,2.22a.58.58,0,1,0,1,.52L25.4,14,26,15.31a.6.6,0,0,0,.53.32.65.65,0,0,0,.26-.06.6.6,0,0,0,.26-.79L26,12.58V8.05A.24.24,0,0,0,26,8l1.55-.57.16-.07A1.12,1.12,0,0,0,28.09,7l-.47-.35.53.25A1.12,1.12,0,0,0,28.31,6.3Z"></path></g></svg> 