<?xml version="1.0" encoding="UTF-8"?> <svg xmlns="http://www.w3.org/2000/svg" viewBox="0 0 20.97 15.8"><defs><style>.cls-1{fill:#9b9ea1;}</style></defs><g id="CURSO_FAQS" data-name="CURSO / FAQS"><path class="cls-1" d="M5.71,7.71a5.18,5.18,0,0,1,2.18-.52h9.19V5.42A2.48,2.48,0,0,0,14.6,3h-6V2.59A2.34,2.34,0,0,0,7.86.85,2.34,2.34,0,0,0,6.12.12H2.58A2.36,2.36,0,0,0,.84.85,2.34,2.34,0,0,0,.11,2.59V13.33a.88.88,0,0,1,0,.14l.05-.06L3.9,9A5.15,5.15,0,0,1,5.71,7.71Z"></path><path class="cls-1" d="M20.57,8.74a1.57,1.57,0,0,0-.67-.14h-12A3.86,3.86,0,0,0,6.3,9,3.84,3.84,0,0,0,5,10L1.26,14.32a1.15,1.15,0,0,0-.35.73.5.5,0,0,0,.3.48,1.57,1.57,0,0,0,.67.14h12a3.85,3.85,0,0,0,1.58-.39,3.71,3.71,0,0,0,1.33-1L20.52,10a1.15,1.15,0,0,0,.35-.73A.5.5,0,0,0,20.57,8.74Z"></path></g></svg> 