<?xml version="1.0" encoding="UTF-8"?> <svg xmlns="http://www.w3.org/2000/svg" viewBox="0 0 19.38 18.83"><defs><style>.cls-1{fill:none;stroke:#9b9ea1;stroke-miterlimit:10;}</style></defs><g id="CURSO_FAQS" data-name="CURSO / FAQS"><path class="cls-1" d="M18.54,7.39a1,1,0,0,0-.81-.66l-5.14-.46-2-4.76a.95.95,0,0,0-1.74,0l-2,4.76-5.14.46a1,1,0,0,0-.54,1.66L5,11.8l-1.14,5a1,1,0,0,0,.37,1,.93.93,0,0,0,.55.18,1,1,0,0,0,.49-.14l4.43-2.65,4.43,2.65a.94.94,0,0,0,1,0,1,1,0,0,0,.37-1l-1.15-5,3.88-3.41A.93.93,0,0,0,18.54,7.39Z"></path></g></svg> 