<?xml version="1.0" encoding="UTF-8"?> <svg xmlns="http://www.w3.org/2000/svg" viewBox="0 0 19.76 25.32"><defs><style>.cls-1{fill:#9c9b9b;}</style></defs><g id="HOME"><path class="cls-1" d="M18.35,8,11.71,1.31A3.63,3.63,0,0,0,9.14.24H.31V25.07H19.42V10.52A3.63,3.63,0,0,0,18.35,8ZM12.77,4.43l2.46,2.45H12.77ZM18,23.62H1.76V1.7H9.14a2.18,2.18,0,0,1,2.18,2.18V8.34h4.46A2.19,2.19,0,0,1,18,10.52Z"></path><path class="cls-1" d="M4,20h8.56v1.45H4Z"></path><path class="cls-1" d="M4,17.07H15.78v1.45H4Z"></path><path class="cls-1" d="M4,14.16H15.78v1.45H4Z"></path><path class="cls-1" d="M4,11.25H15.78V12.7H4Z"></path></g></svg> 