<?xml version="1.0" encoding="UTF-8"?> <svg xmlns="http://www.w3.org/2000/svg" viewBox="0 0 18.25 17.34"><defs><style>.cls-1{fill:#9b9ea1;}</style></defs><g id="CURSO_INTRO" data-name="CURSO / INTRO"><path class="cls-1" d="M17.81,7.74,9.75.39a.92.92,0,0,0-1.24,0L.45,7.74a.92.92,0,0,0,.62,1.6H2.36V16.7a.53.53,0,0,0,.53.53H7.31a.52.52,0,0,0,.52-.53V12.23h2.6V16.7a.53.53,0,0,0,.53.53h4.42a.53.53,0,0,0,.53-.53V9.34h1.28a.91.91,0,0,0,.86-.59A.9.9,0,0,0,17.81,7.74Z"></path><path class="cls-1" d="M15.77,1.21H12.22l4.08,3.7V1.73A.52.52,0,0,0,15.77,1.21Z"></path></g></svg> 