<?xml version="1.0" encoding="UTF-8"?> <svg xmlns="http://www.w3.org/2000/svg" viewBox="0 0 34 34"><defs><style>.cls-1{fill:#fff;}</style></defs><g id="LOGIN"><path class="cls-1" d="M17,.69A16.31,16.31,0,1,0,33.31,17,16.31,16.31,0,0,0,17,.69ZM12.26,25.34h-4V13.4h4Zm-2-13.58h0a2.07,2.07,0,1,1,.05-4.12,2.07,2.07,0,1,1,0,4.12Zm16.3,13.58h-4V19c0-1.6-.57-2.7-2-2.7a2.18,2.18,0,0,0-2,1.45,2.89,2.89,0,0,0-.13,1v6.67h-4s0-10.82,0-11.94h4v1.69a3.93,3.93,0,0,1,3.58-2c2.61,0,4.57,1.7,4.57,5.37Z"></path></g></svg> 