<?xml version="1.0" encoding="UTF-8"?> <svg xmlns="http://www.w3.org/2000/svg" viewBox="0 0 10.28 10.26"><defs><style>.cls-1{fill:#fff;}</style></defs><g id="LOGIN"><path class="cls-1" d="M6.24,4a2.29,2.29,0,0,0-1.66-.69A2.33,2.33,0,0,0,2.93,4L.8,6.15A2.34,2.34,0,0,0,4.11,9.47L5.87,7.71a.18.18,0,0,0,0-.12.18.18,0,0,0-.17-.17H5.68a2.83,2.83,0,0,1-1.07-.21.17.17,0,0,0-.18,0L3.16,8.52A1,1,0,0,1,1.74,7.1L3.88,5A1,1,0,0,1,5.3,5a.68.68,0,0,0,.94,0,.66.66,0,0,0,.2-.43A.65.65,0,0,0,6.24,4Z"></path><path class="cls-1" d="M9.47.79a2.33,2.33,0,0,0-3.31,0L4.4,2.54a.17.17,0,0,0,0,.19.15.15,0,0,0,.15.1h.06A2.85,2.85,0,0,1,5.66,3a.17.17,0,0,0,.18,0L7.1,1.74A1,1,0,0,1,8.52,3.16L7,4.73v0l-.55.54A1,1,0,0,1,5,5.29a.68.68,0,0,0-.94,0,.66.66,0,0,0-.2.43.68.68,0,0,0,.2.52,2.45,2.45,0,0,0,.67.47l.1,0,.11,0,.11,0,.09,0,.21.05.25,0H6l.12,0h0l.1,0h0a2.29,2.29,0,0,0,1.09-.62L9.47,4.1A2.33,2.33,0,0,0,9.47.79Z"></path></g></svg> 