<?xml version="1.0" encoding="UTF-8"?> <svg xmlns="http://www.w3.org/2000/svg" viewBox="0 0 11.11 7.12"><defs><style>.cls-1{fill:#fff;}</style></defs><g id="LOGIN"><path class="cls-1" d="M.33.61c1.5,1,4.12,2.75,4.89,3.29A.56.56,0,0,0,5.55,4a.52.52,0,0,0,.33-.12c.77-.54,3.4-2.29,4.9-3.29a.16.16,0,0,0,0-.25,1,1,0,0,0-.72-.27H1A1,1,0,0,0,.3.36.16.16,0,0,0,.33.61Z"></path><path class="cls-1" d="M10.87,1.64a.33.33,0,0,0-.24,0C9,2.78,6.85,4.19,6.19,4.66a1.1,1.1,0,0,1-1.27,0c-.71-.5-3.09-2.09-4.44-3a.36.36,0,0,0-.25,0,.19.19,0,0,0-.13.17V6.29A.83.83,0,0,0,1,7H10.1a.82.82,0,0,0,.9-.72V1.81A.19.19,0,0,0,10.87,1.64Z"></path></g></svg> 