<?xml version="1.0" encoding="UTF-8"?> <svg xmlns="http://www.w3.org/2000/svg" viewBox="0 0 17.72 17.83"><defs><style>.cls-1{fill:#fff;}</style></defs><g id="USUARIO"><path class="cls-1" d="M16.53,8.94A7.69,7.69,0,0,0,8.87,1.29H8.35A5.1,5.1,0,0,0,1.23,8.46c0,.16,0,.32,0,.48A7.69,7.69,0,0,0,8.87,16.6h.49a5.11,5.11,0,0,0,7.15-7.16C16.52,9.27,16.53,9.11,16.53,8.94ZM8.87,14.06a5,5,0,0,1-2.75-.77c-.65-.43-1.22-1-.88-1.72a1.05,1.05,0,0,1,1.7-.23,2.77,2.77,0,0,0,2,.67c.76,0,2-.39,2-1s-1.21-1-2-1c-2.51,0-4.1-1.52-4.1-3.05s1.44-3,4.1-3a5.05,5.05,0,0,1,2.72.71c.65.43,1.22,1,.88,1.72a1,1,0,0,1-1.7.23,2.73,2.73,0,0,0-2-.67c-.76,0-2,.4-2,1s1.25,1,2.07,1c2.52,0,4.07,1.56,4.07,3.08S11.38,14.06,8.87,14.06Z"></path></g></svg> 