<?xml version="1.0" encoding="UTF-8"?> <svg xmlns="http://www.w3.org/2000/svg" viewBox="0 0 34 34"><defs><style>.cls-1{fill:#fff;}</style></defs><g id="LOGIN"><path class="cls-1" d="M17,.69A16.31,16.31,0,1,0,33.31,17,16.31,16.31,0,0,0,17,.69Zm7.45,12.72c0,.16,0,.32,0,.48A10.58,10.58,0,0,1,13.81,24.54h0a10.61,10.61,0,0,1-5.74-1.68,8.69,8.69,0,0,0,.89.05,7.52,7.52,0,0,0,4.65-1.6,3.75,3.75,0,0,1-3.5-2.6,4.17,4.17,0,0,0,.71.07,3.93,3.93,0,0,0,1-.13A3.75,3.75,0,0,1,8.8,15v-.05a3.76,3.76,0,0,0,1.7.47,3.74,3.74,0,0,1-1.16-5,10.64,10.64,0,0,0,7.71,3.91,4,4,0,0,1-.09-.85,3.74,3.74,0,0,1,6.47-2.56A7.44,7.44,0,0,0,25.81,10a3.77,3.77,0,0,1-1.65,2.07,7.36,7.36,0,0,0,2.15-.59A7.62,7.62,0,0,1,24.45,13.41Z"></path></g></svg> 