<?xml version="1.0" encoding="UTF-8"?> <svg xmlns="http://www.w3.org/2000/svg" viewBox="0 0 34 34"><defs><style>.cls-1{fill:#fff;}</style></defs><g id="LOGIN"><path class="cls-1" d="M15,20.06,20.27,17,15,13.94Z"></path><path class="cls-1" d="M17,.69A16.31,16.31,0,1,0,33.31,17,16.31,16.31,0,0,0,17,.69ZM27.19,17a26.9,26.9,0,0,1-.42,4.9A2.53,2.53,0,0,1,25,23.71c-1.59.42-8,.42-8,.42s-6.36,0-8-.43a2.56,2.56,0,0,1-1.8-1.8A26.78,26.78,0,0,1,6.81,17a26.84,26.84,0,0,1,.42-4.9A2.59,2.59,0,0,1,9,10.29c1.59-.42,8-.42,8-.42s6.38,0,8,.43a2.56,2.56,0,0,1,1.8,1.8A25.25,25.25,0,0,1,27.19,17Z"></path></g></svg> 